<mxfile host="app.diagrams.net" agent="Mozilla/5.0 (Windows NT 10.0; Win64; x64) AppleWebKit/537.36 (KHTML, like Gecko) Chrome/139.0.0.0 Safari/537.36" version="28.2.0">
  <diagram name="Page-1" id="ja6Jv6K6E00j63stfY1Q">
    <mxGraphModel dx="2039" dy="1576" grid="1" gridSize="10" guides="1" tooltips="1" connect="1" arrows="0" fold="1" page="0" pageScale="1" pageWidth="827" pageHeight="1169" math="0" shadow="0">
      <root>
        <mxCell id="0" />
        <mxCell id="1" parent="0" />
        <mxCell id="EDjaMZPSDxmGKB74mhdC-53" value="US-004: Daily Reconciliation Summary for Finance" style="swimlane;childLayout=stackLayout;resizeParent=1;resizeParentMax=0;horizontal=1;startSize=20;horizontalStack=0;html=1;" parent="1" vertex="1">
          <mxGeometry x="-950" y="-720" width="660" height="390" as="geometry" />
        </mxCell>
        <mxCell id="EDjaMZPSDxmGKB74mhdC-54" value="System / IT" style="swimlane;startSize=20;horizontal=0;html=1;" parent="EDjaMZPSDxmGKB74mhdC-53" vertex="1">
          <mxGeometry y="20" width="660" height="230" as="geometry" />
        </mxCell>
        <mxCell id="EDjaMZPSDxmGKB74mhdC-68" value="" style="endArrow=classic;html=1;rounded=0;fontSize=12;startSize=8;endSize=8;curved=1;exitX=0.5;exitY=1;exitDx=0;exitDy=0;" parent="EDjaMZPSDxmGKB74mhdC-54" source="dmt541acUcm2cPtqfMdv-4" edge="1">
          <mxGeometry relative="1" as="geometry">
            <mxPoint x="404.5" y="110" as="sourcePoint" />
            <mxPoint x="425" y="210" as="targetPoint" />
          </mxGeometry>
        </mxCell>
        <mxCell id="EDjaMZPSDxmGKB74mhdC-69" value="No" style="edgeLabel;resizable=0;html=1;;align=center;verticalAlign=middle;" parent="EDjaMZPSDxmGKB74mhdC-68" connectable="0" vertex="1">
          <mxGeometry relative="1" as="geometry" />
        </mxCell>
        <mxCell id="EDjaMZPSDxmGKB74mhdC-70" value="Yes" style="edgeLabel;html=1;align=center;verticalAlign=middle;resizable=0;points=[];fontSize=12;" parent="EDjaMZPSDxmGKB74mhdC-68" vertex="1" connectable="0">
          <mxGeometry x="-0.0062" y="-2" relative="1" as="geometry">
            <mxPoint as="offset" />
          </mxGeometry>
        </mxCell>
        <mxCell id="EDjaMZPSDxmGKB74mhdC-71" value="Send to Customer Care" style="rounded=0;whiteSpace=wrap;html=1;" parent="EDjaMZPSDxmGKB74mhdC-54" vertex="1">
          <mxGeometry x="500" y="150" width="120" height="60" as="geometry" />
        </mxCell>
        <mxCell id="dmt541acUcm2cPtqfMdv-8" style="edgeStyle=orthogonalEdgeStyle;rounded=0;orthogonalLoop=1;jettySize=auto;html=1;exitX=1;exitY=0.5;exitDx=0;exitDy=0;" edge="1" parent="EDjaMZPSDxmGKB74mhdC-54" source="dmt541acUcm2cPtqfMdv-2" target="dmt541acUcm2cPtqfMdv-3">
          <mxGeometry relative="1" as="geometry" />
        </mxCell>
        <mxCell id="dmt541acUcm2cPtqfMdv-2" value="Daily reconciliation process completes" style="ellipse;whiteSpace=wrap;html=1;" vertex="1" parent="EDjaMZPSDxmGKB74mhdC-54">
          <mxGeometry x="45" y="45" width="120" height="80" as="geometry" />
        </mxCell>
        <mxCell id="dmt541acUcm2cPtqfMdv-9" style="edgeStyle=orthogonalEdgeStyle;rounded=0;orthogonalLoop=1;jettySize=auto;html=1;exitX=1;exitY=0.5;exitDx=0;exitDy=0;entryX=0;entryY=0.5;entryDx=0;entryDy=0;" edge="1" parent="EDjaMZPSDxmGKB74mhdC-54" source="dmt541acUcm2cPtqfMdv-3" target="dmt541acUcm2cPtqfMdv-4">
          <mxGeometry relative="1" as="geometry" />
        </mxCell>
        <mxCell id="dmt541acUcm2cPtqfMdv-3" value="Generate Summary Report" style="rounded=0;whiteSpace=wrap;html=1;" vertex="1" parent="EDjaMZPSDxmGKB74mhdC-54">
          <mxGeometry x="210" y="55" width="120" height="60" as="geometry" />
        </mxCell>
        <mxCell id="dmt541acUcm2cPtqfMdv-10" style="edgeStyle=orthogonalEdgeStyle;rounded=0;orthogonalLoop=1;jettySize=auto;html=1;exitX=1;exitY=0.5;exitDx=0;exitDy=0;" edge="1" parent="EDjaMZPSDxmGKB74mhdC-54" source="dmt541acUcm2cPtqfMdv-4" target="EDjaMZPSDxmGKB74mhdC-71">
          <mxGeometry relative="1" as="geometry" />
        </mxCell>
        <mxCell id="dmt541acUcm2cPtqfMdv-11" value="No" style="edgeLabel;html=1;align=center;verticalAlign=middle;resizable=0;points=[];" vertex="1" connectable="0" parent="dmt541acUcm2cPtqfMdv-10">
          <mxGeometry x="-0.0759" y="-3" relative="1" as="geometry">
            <mxPoint x="-27" y="-3" as="offset" />
          </mxGeometry>
        </mxCell>
        <mxCell id="dmt541acUcm2cPtqfMdv-4" value="Highlight Match Rate" style="rhombus;whiteSpace=wrap;html=1;" vertex="1" parent="EDjaMZPSDxmGKB74mhdC-54">
          <mxGeometry x="370" y="40" width="110" height="90" as="geometry" />
        </mxCell>
        <mxCell id="EDjaMZPSDxmGKB74mhdC-55" value="Finance Manager" style="swimlane;startSize=20;horizontal=0;html=1;" parent="EDjaMZPSDxmGKB74mhdC-53" vertex="1">
          <mxGeometry y="250" width="660" height="140" as="geometry" />
        </mxCell>
        <mxCell id="EDjaMZPSDxmGKB74mhdC-80" style="edgeStyle=none;curved=1;rounded=0;orthogonalLoop=1;jettySize=auto;html=1;exitX=1;exitY=0.5;exitDx=0;exitDy=0;entryX=0;entryY=0.5;entryDx=0;entryDy=0;fontSize=12;startSize=8;endSize=8;" parent="EDjaMZPSDxmGKB74mhdC-55" edge="1">
          <mxGeometry relative="1" as="geometry">
            <mxPoint x="440" y="69.5" as="sourcePoint" />
            <mxPoint x="500" y="69.5" as="targetPoint" />
          </mxGeometry>
        </mxCell>
        <mxCell id="EDjaMZPSDxmGKB74mhdC-73" style="edgeStyle=none;curved=1;rounded=0;orthogonalLoop=1;jettySize=auto;html=1;exitX=1;exitY=0.5;exitDx=0;exitDy=0;fontSize=12;startSize=8;endSize=8;exitPerimeter=0;" parent="EDjaMZPSDxmGKB74mhdC-55" edge="1">
          <mxGeometry relative="1" as="geometry">
            <mxPoint x="280" y="69.5" as="sourcePoint" />
            <mxPoint x="320" y="69.5" as="targetPoint" />
          </mxGeometry>
        </mxCell>
        <mxCell id="EDjaMZPSDxmGKB74mhdC-77" value="End" style="ellipse;whiteSpace=wrap;html=1;" parent="EDjaMZPSDxmGKB74mhdC-55" vertex="1">
          <mxGeometry x="500" y="30" width="120" height="80" as="geometry" />
        </mxCell>
        <mxCell id="dmt541acUcm2cPtqfMdv-5" value="Receive Report" style="rounded=0;whiteSpace=wrap;html=1;" vertex="1" parent="EDjaMZPSDxmGKB74mhdC-55">
          <mxGeometry x="160" y="40" width="120" height="60" as="geometry" />
        </mxCell>
        <mxCell id="dmt541acUcm2cPtqfMdv-7" value="Review Report" style="rounded=0;whiteSpace=wrap;html=1;" vertex="1" parent="EDjaMZPSDxmGKB74mhdC-55">
          <mxGeometry x="320" y="40" width="120" height="60" as="geometry" />
        </mxCell>
        <mxCell id="dmt541acUcm2cPtqfMdv-12" style="edgeStyle=orthogonalEdgeStyle;rounded=0;orthogonalLoop=1;jettySize=auto;html=1;exitX=0.5;exitY=1;exitDx=0;exitDy=0;entryX=0.5;entryY=0;entryDx=0;entryDy=0;" edge="1" parent="EDjaMZPSDxmGKB74mhdC-53" source="EDjaMZPSDxmGKB74mhdC-71" target="EDjaMZPSDxmGKB74mhdC-77">
          <mxGeometry relative="1" as="geometry" />
        </mxCell>
      </root>
    </mxGraphModel>
  </diagram>
</mxfile>
